<?xml version="1.0" encoding="utf-8"?>
<!-- Generator: Adobe Illustrator 18.1.1, SVG Export Plug-In . SVG Version: 6.00 Build 0)  -->
<svg version="1.1" id="Layer_1" xmlns="http://www.w3.org/2000/svg" xmlns:xlink="http://www.w3.org/1999/xlink" x="0px" y="0px"
	 viewBox="0 180.8 957.9 198.3" enable-background="new 0 180.8 957.9 198.3" xml:space="preserve">
<g>
	<g>
		<path fill="#2E2E2E" d="M21.1,265.2h122.4l21.1-29.5H0L21.1,265.2z M40.1,315.9h80.2l21.1-29.5H21.1L40.1,315.9z M371.3,311.6
			c-6.3,0-12.7,2.1-16.9,2.1c-16.9,0-21.1-6.3-21.1-21.1V223h-29.5v71.7c0,33.8,21.1,44.3,52.7,44.3c14.8,0,33.8-2.1,46.4-6.3V223
			h-29.5v88.6H371.3z M246.9,220.9c-14.8,0-27.4,4.2-38,8.4v25.3c8.4-6.3,19-8.4,31.6-8.4c10.5,0,21.1,4.2,21.1,14.8v6.3H249
			c-31.6,0-50.6,10.5-50.6,33.8c0,25.3,21.1,33.8,50.6,33.8c14.8,0,31.6-2.1,42.2-4.2V261C293.3,231.5,274.3,220.9,246.9,220.9z
			 M263.7,313.8c-4.2,0-8.4,2.1-12.7,2.1c-12.7,0-19-4.2-19-14.8c0-10.5,8.4-12.7,23.2-12.7h10.5v25.3H263.7z M521.1,220.9
			c-33.8,0-59.1,23.2-59.1,59.1s25.3,59.1,59.1,59.1s59.1-23.2,59.1-59.1C578.1,244.1,552.8,220.9,521.1,220.9z M521.1,311.6
			c-16.9,0-27.4-12.7-27.4-31.6c0-21.1,12.7-31.6,27.4-31.6c16.9,0,27.4,12.7,27.4,31.6S535.9,311.6,521.1,311.6z M702.6,334.9h29.5
			V223h-29.5V334.9z M841.8,220.9c-33.8,0-59.1,23.2-59.1,59.1s25.3,59.1,59.1,59.1c33.8,0,59.1-23.2,59.1-59.1
			S875.6,220.9,841.8,220.9z M841.8,311.6c-16.9,0-27.4-12.7-27.4-31.6c0-21.1,12.7-31.6,27.4-31.6c16.9,0,27.4,12.7,27.4,31.6
			C871.4,299,858.7,311.6,841.8,311.6z M717.4,180.8c-10.5,0-19,8.4-19,19s8.4,16.9,19,16.9s19-8.4,19-16.9
			C736.4,189.3,727.9,180.8,717.4,180.8z M464.2,223h-21.1v-27.4l-29.5,25.3v113.9h29.5v-86.5h21.1V223z M938.9,223v-27.4
			l-29.5,25.3v113.9h29.5v-86.5h19V223H938.9z M746.9,334.9h29.5V185.1l-29.5,25.3V334.9z M630.9,220.9c-19,0-31.6,4.2-44.3,8.4
			v149.8l29.5-25.3v-19c0,0,4.2,2.1,12.7,2.1c40.1,0,63.3-21.1,63.3-61.2C692,242,666.7,220.9,630.9,220.9z M626.6,311.6
			c-6.3,0-10.5-2.1-10.5-2.1v-59.1c0,0,6.3-2.1,12.7-2.1c19,0,31.6,10.5,31.6,29.5C660.4,301.1,645.6,311.6,626.6,311.6z"/>
	</g>
</g>
</svg>
